# xmcd
#
# Track frame offsets:
#	150
#	15250
#	29210
#	48932
#	65955
#	83172
#	99247
#	113192
#	129265
#	144327
#	158292
#	178040
#	195112
#	212312
#	228395
#	242377
#	269835
#
# Disc length: 3610 seconds
#
# Revision: 1
# Processed by: cddbd v1.5.2PL0 Copyright (c) Steve Scherf et al.
# Submitted via: audiograbber 1.83.01
#
DISCID=d50e1811
DTITLE=ANNE MURRAY-VOL1 - HITS OF
DYEAR=2007
DGENRE=Country
TTITLE0=JUST ANOTHER WOMAN IN LOVE
TTITLE1=I JUST FALL IN LOVE AGAIN
TTITLE2=BROKEN HEARTED ME
TTITLE3=BLUEBIRD
TTITLE4=YOU NEEDED ME
TTITLE5=A LITTLE GOOD NEWS
TTITLE6=HE THINKS I STILL CARE
TTITLE7=COULD I HAVE THIS DANCE
TTITLE8=StarSeries
TTITLE9=StarSeries
TTITLE10=StarSeries
TTITLE11=StarSeries
TTITLE12=StarSeries
TTITLE13=StarSeries
TTITLE14=StarSeries
TTITLE15=StarSeries
TTITLE16=StarSeries
EXTD=
EXTT0=Good
EXTT1=Good
EXTT2=Good
EXTT3=Good
EXTT4=Good
EXTT5=Good
EXTT6=Good
EXTT7=Good
EXTT8=Good
EXTT9=Good
EXTT10=Good
EXTT11=Good
EXTT12=Good
EXTT13=Good
EXTT14=Good
EXTT15=Good
EXTT16=Good
PLAYORDER=
